<?xml version="1.0" encoding="utf-8"?>
<!-- Generator: Adobe Illustrator 17.0.0, SVG Export Plug-In . SVG Version: 6.00 Build 0)  -->
<!DOCTYPE svg PUBLIC "-//W3C//DTD SVG 1.1//EN" "http://www.w3.org/Graphics/SVG/1.1/DTD/svg11.dtd">
<svg version="1.1" id="Layer_1" xmlns="http://www.w3.org/2000/svg" xmlns:xlink="http://www.w3.org/1999/xlink" x="0px" y="0px"
	 width="400px" height="720px" viewBox="0 0 400 720" enable-background="new 0 0 400 720" xml:space="preserve">
<g id="Pictograms">
	<g>
		<path d="M47,139v435h305V139H47z M344,566H56V147h288V566z M47,139v435h305V139H47z M344,566H56V147h288V566z M47,139v435h305V139
			H47z M344,566H56V147h288V566z M47,139v435h305V139H47z M344,566H56V147h288V566z M47,139v435h305V139H47z M344,566H56V147h288
			V566z M47,139v435h305V139H47z M344,566H56V147h288V566z M327.47,11H73.02C43.17,11,19,34.98,19,64.67v590.99
			C19,686.27,43.17,711,73.02,711h254.45c30.16,0,55.53-25.25,55.53-55.33v-591C383,34.98,358.15,11,327.47,11z M375,655.67
			c0,25.64-21.82,47.33-47.53,47.33H73.02C47.69,703,27,681.75,27,655.67v-591C27,39.08,47.26,19,73.02,19h254.45
			C353.63,19,375,39.51,375,64.67V655.67z M47,574h305V139H47V574z M56,147h288v419H56V147z M47,139v435h305V139H47z M344,566H56
			V147h288V566z M47,139v435h305V139H47z M344,566H56V147h288V566z M47,139v435h305V139H47z M344,566H56V147h288V566z M47,139v435
			h305V139H47z M344,566H56V147h288V566z M47,139v435h305V139H47z M344,566H56V147h288V566z M47,139v435h305V139H47z M344,566H56
			V147h288V566z"/>
		<path fill="none" stroke="#000000" stroke-width="3" stroke-miterlimit="10" d="M236.26,78.01c0,4.54-4.04,8.49-8.82,8.49h-54.37
			c-4.79,0-8.83-3.95-8.83-8.49c0-4.56,4.04-8.51,8.83-8.51h54.37C232.22,69.5,236.26,73.45,236.26,78.01z"/>
	</g>
	<g>
		<path fill="none" stroke="#000000" stroke-width="3" stroke-miterlimit="10" d="M230.56,634.82c0,16.73-13.6,30.33-30.31,30.33
			s-30.32-13.6-30.32-30.33c0-16.72,13.61-30.31,30.32-30.31S230.56,618.1,230.56,634.82z"/>
	</g>
</g>
<g id="Guides">
</g>
</svg>
