<?xml version="1.0" encoding="utf-8"?>
<!-- Generator: Adobe Illustrator 17.0.0, SVG Export Plug-In . SVG Version: 6.00 Build 0)  -->
<!DOCTYPE svg PUBLIC "-//W3C//DTD SVG 1.1//EN" "http://www.w3.org/Graphics/SVG/1.1/DTD/svg11.dtd">
<svg version="1.1" id="Слой_1" xmlns="http://www.w3.org/2000/svg" xmlns:xlink="http://www.w3.org/1999/xlink" x="0px" y="0px"
	 width="100px" height="100px" viewBox="0 0 100 100" enable-background="new 0 0 100 100" xml:space="preserve">
<path fill="#7FA79E" d="M50.016,82.6c8.352,0,16.703-3.179,23.062-9.537l-3.535-3.535c-10.768,10.765-28.286,10.766-39.054,0
	c-10.767-10.768-10.767-28.287,0-39.054s28.285-10.768,39.054,0l3.535-3.535c-12.717-12.717-33.407-12.716-46.124,0
	s-12.717,33.408,0,46.125C33.312,79.421,41.663,82.6,50.016,82.6z"/>
<polygon fill="#7FA79E" points="80.189,41.12 86.569,47.5 50.016,47.5 50.016,52.5 86.569,52.5 80.189,58.88 83.725,62.415 
	96.14,50 83.725,37.585 "/>
</svg>
